P3
8 8
255
33
109
39
33
109
39
33
109
39
33
109
39
33
109
39
33
109
39
33
109
39
33
109
39
33
109
39
0
255
227
33
109
39
33
109
39
33
109
39
33
109
39
33
109
39
33
109
39
33
109
39
33
109
39
33
109
39
33
109
39
33
109
39
33
109
39
33
109
39
33
109
39
33
109
39
33
109
39
33
109
39
33
109
39
33
109
39
33
109
39
78
0
149
33
109
39
33
109
39
33
109
39
33
109
39
33
109
39
33
109
39
33
109
39
33
109
39
33
109
39
33
109
39
33
109
39
33
109
39
33
109
39
78
0
149
33
109
39
33
109
39
33
109
39
33
109
39
33
109
39
33
109
39
33
109
39
33
109
39
33
109
39
33
109
39
33
109
39
33
109
39
33
109
39
33
109
39
33
109
39
33
109
39
33
109
39
33
109
39
33
109
39
