P3
24 16
255
255
0
255
255
0
255
255
0
255
255
0
255
255
0
255
255
0
255
255
0
255
255
0
255
255
0
255
255
0
255
255
0
255
255
0
255
255
0
255
255
0
255
255
0
255
255
0
255
255
0
255
255
0
255
255
0
255
255
0
255
255
0
255
255
0
255
255
0
255
255
0
255
255
0
255
255
0
255
255
0
255
255
0
255
255
0
255
255
0
255
255
0
255
255
0
255
255
0
255
255
0
255
255
0
255
255
0
255
255
0
255
255
0
255
255
0
255
255
0
255
255
0
255
255
0
255
255
0
255
255
0
255
255
0
255
255
0
255
255
0
255
255
0
255
255
0
255
255
0
255
255
0
255
255
0
255
255
0
255
255
0
255
255
0
255
255
0
255
255
0
255
255
0
255
255
0
255
255
0
255
255
0
255
255
0
255
255
0
255
255
0
255
255
0
255
255
0
255
255
0
255
255
0
255
255
0
255
255
0
255
255
0
255
255
0
255
255
0
255
255
0
255
255
0
255
255
0
255
255
0
255
255
0
255
255
0
255
255
0
255
255
0
255
255
0
255
255
0
255
255
0
255
255
0
255
255
0
255
0
173
14
0
173
14
0
173
14
0
173
14
255
0
255
255
0
255
255
0
255
255
0
255
255
0
255
255
0
255
255
0
255
255
0
255
255
0
255
255
0
255
255
0
255
255
0
255
255
0
255
255
0
255
255
0
255
255
0
255
255
0
255
255
0
255
0
173
14
0
173
14
0
173
14
255
0
255
255
0
255
0
173
14
0
173
14
255
0
255
255
0
255
255
0
255
255
0
255
255
0
255
255
0
255
255
0
255
255
0
255
255
0
255
255
0
255
255
0
255
255
0
255
255
0
255
255
0
255
255
0
255
255
0
255
0
173
14
0
173
14
255
0
255
255
0
255
255
0
255
255
0
255
255
0
255
0
255
227
0
255
227
0
255
227
255
0
255
255
0
255
255
0
255
255
0
255
255
0
255
255
0
255
255
0
255
255
0
255
255
0
255
255
0
255
255
0
255
255
0
255
255
0
255
255
0
255
0
173
14
255
0
255
255
0
255
255
0
255
255
0
255
255
0
255
255
0
255
0
255
227
0
255
227
0
255
227
255
0
255
255
0
255
255
0
255
255
0
255
255
0
255
255
0
255
255
0
255
255
0
255
255
0
255
255
0
255
255
0
255
255
0
255
255
0
255
0
173
14
0
173
14
255
0
255
255
0
255
255
0
255
255
0
255
255
0
255
0
255
227
0
255
227
0
255
227
0
255
227
0
255
227
255
0
255
255
0
255
255
0
255
255
0
255
255
0
255
255
0
255
255
0
255
255
0
255
255
0
255
255
0
255
255
0
255
255
0
255
0
173
14
255
0
255
255
0
255
255
0
255
255
0
255
255
0
255
255
0
255
0
255
227
0
255
227
255
0
255
255
0
255
0
255
227
255
0
255
255
0
255
255
0
255
0
173
14
0
173
14
0
173
14
255
0
255
255
0
255
255
0
255
255
0
255
255
0
255
0
173
14
0
173
14
255
0
255
255
0
255
255
0
255
255
0
255
255
0
255
255
0
255
255
0
255
255
0
255
255
0
255
255
0
255
255
0
255
255
0
255
255
0
255
255
0
255
255
0
255
0
173
14
0
173
14
0
173
14
0
173
14
255
0
255
255
0
255
255
0
255
0
173
14
255
0
255
255
0
255
255
0
255
255
0
255
255
0
255
255
0
255
255
0
255
0
173
14
0
173
14
0
173
14
255
0
255
255
0
255
255
0
255
255
0
255
255
0
255
255
0
255
0
173
14
0
173
14
0
173
14
0
173
14
0
173
14
255
0
255
255
0
255
0
173
14
255
0
255
255
0
255
255
0
255
255
0
255
255
0
255
0
173
14
0
173
14
0
173
14
0
173
14
0
173
14
255
0
255
255
0
255
255
0
255
255
0
255
255
0
255
255
0
255
255
0
255
0
173
14
0
173
14
0
173
14
0
173
14
0
173
14
0
173
14
0
173
14
0
173
14
255
0
255
255
0
255
0
173
14
0
173
14
0
173
14
0
173
14
0
173
14
0
173
14
255
0
255
255
0
255
255
0
255
255
0
255
255
0
255
255
0
255
255
0
255
255
0
255
255
0
255
0
173
14
0
173
14
0
173
14
0
173
14
0
173
14
0
173
14
0
173
14
0
173
14
0
173
14
0
173
14
0
173
14
0
173
14
0
173
14
0
173
14
255
0
255
255
0
255
255
0
255
255
0
255
255
0
255
255
0
255
255
0
255
255
0
255
255
0
255
255
0
255
255
0
255
255
0
255
255
0
255
0
173
14
0
173
14
0
173
14
0
173
14
0
173
14
0
173
14
0
173
14
0
173
14
255
0
255
255
0
255
255
0
255
255
0
255
255
0
255
255
0
255
255
0
255
255
0
255
255
0
255
255
0
255
255
0
255
255
0
255
255
0
255
255
0
255
255
0
255
255
0
255
255
0
255
255
0
255
0
173
14
0
173
14
0
173
14
255
0
255
255
0
255
255
0
255
255
0
255
255
0
255
255
0
255
255
0
255
255
0
255
255
0
255
255
0
255
255
0
255
255
0
255
