P3
24 16
255
33
109
39
33
109
39
33
109
39
33
109
39
33
109
39
33
109
39
33
109
39
33
109
39
33
109
39
33
109
39
33
109
39
33
109
39
33
109
39
33
109
39
33
109
39
33
109
39
33
109
39
33
109
39
33
109
39
33
109
39
33
109
39
33
109
39
33
109
39
33
109
39
33
109
39
33
109
39
33
109
39
33
109
39
33
109
39
33
109
39
33
109
39
33
109
39
33
109
39
33
109
39
33
109
39
33
109
39
33
109
39
33
109
39
33
109
39
33
109
39
33
109
39
33
109
39
33
109
39
33
109
39
33
109
39
33
109
39
33
109
39
33
109
39
33
109
39
33
109
39
33
109
39
33
109
39
33
109
39
33
109
39
33
109
39
33
109
39
33
109
39
33
109
39
33
109
39
33
109
39
33
109
39
33
109
39
33
109
39
33
109
39
33
109
39
33
109
39
33
109
39
33
109
39
33
109
39
33
109
39
33
109
39
33
109
39
33
109
39
33
109
39
33
109
39
33
109
39
33
109
39
33
109
39
33
109
39
33
109
39
33
109
39
33
109
39
33
109
39
33
109
39
33
109
39
33
109
39
0
173
14
0
173
14
0
173
14
0
173
14
33
109
39
33
109
39
33
109
39
33
109
39
33
109
39
33
109
39
33
109
39
33
109
39
33
109
39
33
109
39
33
109
39
33
109
39
33
109
39
33
109
39
33
109
39
33
109
39
33
109
39
33
109
39
0
173
14
0
173
14
0
173
14
33
109
39
33
109
39
0
173
14
0
173
14
33
109
39
33
109
39
33
109
39
33
109
39
33
109
39
33
109
39
33
109
39
33
109
39
33
109
39
33
109
39
33
109
39
33
109
39
33
109
39
33
109
39
33
109
39
33
109
39
0
173
14
0
173
14
33
109
39
33
109
39
33
109
39
33
109
39
33
109
39
0
255
227
0
255
227
0
255
227
33
109
39
33
109
39
33
109
39
33
109
39
33
109
39
33
109
39
33
109
39
33
109
39
33
109
39
33
109
39
33
109
39
33
109
39
33
109
39
33
109
39
0
173
14
33
109
39
33
109
39
33
109
39
33
109
39
33
109
39
33
109
39
0
255
227
0
255
227
0
255
227
33
109
39
33
109
39
33
109
39
33
109
39
33
109
39
33
109
39
33
109
39
33
109
39
33
109
39
33
109
39
33
109
39
33
109
39
33
109
39
0
173
14
0
173
14
33
109
39
33
109
39
33
109
39
33
109
39
33
109
39
0
255
227
0
255
227
0
255
227
0
255
227
0
255
227
33
109
39
33
109
39
33
109
39
33
109
39
33
109
39
33
109
39
33
109
39
33
109
39
33
109
39
33
109
39
33
109
39
33
109
39
0
173
14
33
109
39
33
109
39
33
109
39
33
109
39
33
109
39
33
109
39
0
255
227
0
255
227
33
109
39
33
109
39
0
255
227
33
109
39
33
109
39
33
109
39
0
173
14
0
173
14
0
173
14
33
109
39
33
109
39
33
109
39
33
109
39
33
109
39
0
173
14
0
173
14
33
109
39
33
109
39
33
109
39
33
109
39
33
109
39
33
109
39
33
109
39
33
109
39
33
109
39
33
109
39
33
109
39
33
109
39
33
109
39
33
109
39
33
109
39
0
173
14
0
173
14
0
173
14
0
173
14
33
109
39
33
109
39
33
109
39
0
173
14
33
109
39
33
109
39
33
109
39
33
109
39
33
109
39
33
109
39
33
109
39
0
173
14
0
173
14
0
173
14
33
109
39
33
109
39
33
109
39
33
109
39
33
109
39
33
109
39
0
173
14
0
173
14
0
173
14
0
173
14
0
173
14
33
109
39
33
109
39
0
173
14
33
109
39
33
109
39
33
109
39
33
109
39
33
109
39
0
173
14
0
173
14
0
173
14
0
173
14
0
173
14
33
109
39
33
109
39
33
109
39
33
109
39
33
109
39
33
109
39
33
109
39
0
173
14
0
173
14
0
173
14
0
173
14
0
173
14
0
173
14
0
173
14
0
173
14
33
109
39
33
109
39
0
173
14
0
173
14
0
173
14
0
173
14
0
173
14
0
173
14
33
109
39
33
109
39
33
109
39
33
109
39
33
109
39
33
109
39
33
109
39
33
109
39
33
109
39
0
173
14
0
173
14
0
173
14
0
173
14
0
173
14
0
173
14
0
173
14
0
173
14
0
173
14
0
173
14
0
173
14
0
173
14
0
173
14
0
173
14
33
109
39
33
109
39
33
109
39
33
109
39
33
109
39
33
109
39
33
109
39
33
109
39
33
109
39
33
109
39
33
109
39
33
109
39
33
109
39
0
173
14
0
173
14
0
173
14
0
173
14
0
173
14
0
173
14
0
173
14
0
173
14
33
109
39
33
109
39
33
109
39
33
109
39
33
109
39
33
109
39
33
109
39
33
109
39
33
109
39
33
109
39
33
109
39
33
109
39
33
109
39
33
109
39
33
109
39
33
109
39
33
109
39
33
109
39
0
173
14
0
173
14
0
173
14
33
109
39
33
109
39
33
109
39
33
109
39
33
109
39
33
109
39
33
109
39
33
109
39
33
109
39
33
109
39
33
109
39
33
109
39
