P3
24 24
255
33
109
39
33
109
39
33
109
39
33
109
39
33
109
39
33
109
39
33
109
39
33
109
39
33
109
39
33
109
39
33
109
39
33
109
39
33
109
39
33
109
39
33
109
39
33
109
39
33
109
39
33
109
39
33
109
39
33
109
39
33
109
39
33
109
39
33
109
39
33
109
39
33
109
39
33
109
39
0
0
0
33
109
39
33
109
39
0
0
0
33
109
39
33
109
39
33
109
39
33
109
39
33
109
39
33
109
39
33
109
39
33
109
39
33
109
39
33
109
39
33
109
39
33
109
39
33
109
39
33
109
39
33
109
39
33
109
39
33
109
39
33
109
39
33
109
39
0
0
0
0
0
0
0
0
0
0
0
0
0
0
0
33
109
39
33
109
39
33
109
39
33
109
39
33
109
39
33
109
39
33
109
39
33
109
39
33
109
39
33
109
39
33
109
39
33
109
39
33
109
39
33
109
39
33
109
39
33
109
39
33
109
39
33
109
39
33
109
39
0
0
0
0
0
0
0
0
0
0
0
0
0
0
0
33
109
39
33
109
39
33
109
39
33
109
39
33
109
39
33
109
39
33
109
39
33
109
39
33
109
39
33
109
39
33
109
39
33
109
39
33
109
39
33
109
39
33
109
39
33
109
39
33
109
39
33
109
39
33
109
39
0
0
0
0
0
0
0
0
0
0
0
0
0
0
0
33
109
39
33
109
39
33
109
39
33
109
39
33
109
39
33
109
39
33
109
39
33
109
39
33
109
39
33
109
39
33
109
39
33
109
39
33
109
39
33
109
39
33
109
39
33
109
39
33
109
39
33
109
39
33
109
39
0
0
0
0
0
0
0
0
0
0
0
0
0
0
0
33
109
39
33
109
39
33
109
39
33
109
39
33
109
39
33
109
39
33
109
39
33
109
39
33
109
39
33
109
39
33
109
39
33
109
39
33
109
39
33
109
39
33
109
39
33
109
39
33
109
39
33
109
39
33
109
39
0
0
0
0
0
0
0
0
0
0
0
0
0
0
0
33
109
39
33
109
39
33
109
39
33
109
39
33
109
39
33
109
39
33
109
39
33
109
39
33
109
39
33
109
39
33
109
39
33
109
39
33
109
39
33
109
39
33
109
39
33
109
39
33
109
39
33
109
39
33
109
39
33
109
39
33
109
39
33
109
39
33
109
39
33
109
39
0
255
227
0
255
227
0
255
227
0
255
227
33
109
39
33
109
39
33
109
39
33
109
39
0
255
227
0
255
227
0
255
227
0
255
227
33
109
39
33
109
39
33
109
39
33
109
39
33
109
39
33
109
39
33
109
39
33
109
39
33
109
39
33
109
39
33
109
39
0
255
227
0
255
227
0
255
227
0
255
227
0
255
227
0
255
227
0
255
227
0
255
227
0
255
227
0
255
227
0
255
227
0
255
227
0
255
227
0
255
227
33
109
39
33
109
39
33
109
39
33
109
39
33
109
39
33
109
39
33
109
39
33
109
39
33
109
39
0
255
227
0
255
227
0
255
227
0
255
227
0
255
227
0
255
227
0
255
227
0
255
227
0
255
227
0
255
227
0
255
227
0
255
227
0
255
227
0
255
227
0
255
227
33
109
39
33
109
39
33
109
39
33
109
39
33
109
39
33
109
39
33
109
39
33
109
39
33
109
39
0
255
227
0
255
227
0
255
227
0
255
227
0
255
227
0
255
227
0
255
227
0
255
227
0
255
227
0
255
227
0
255
227
0
255
227
0
255
227
0
255
227
0
255
227
33
109
39
33
109
39
33
109
39
33
109
39
33
109
39
33
109
39
33
109
39
33
109
39
33
109
39
0
255
227
0
255
227
0
255
227
0
255
227
0
255
227
0
255
227
0
255
227
0
255
227
0
255
227
0
255
227
0
255
227
0
255
227
0
255
227
0
255
227
0
255
227
33
109
39
33
109
39
33
109
39
33
109
39
33
109
39
33
109
39
33
109
39
33
109
39
33
109
39
0
255
227
0
255
227
0
255
227
0
255
227
0
255
227
0
255
227
0
255
227
0
255
227
0
255
227
0
255
227
0
255
227
0
255
227
0
255
227
0
255
227
0
255
227
33
109
39
33
109
39
33
109
39
33
109
39
33
109
39
33
109
39
33
109
39
33
109
39
33
109
39
0
255
227
0
255
227
0
255
227
0
255
227
0
255
227
0
255
227
0
255
227
0
255
227
0
255
227
0
255
227
0
255
227
0
255
227
0
255
227
0
255
227
33
109
39
33
109
39
33
109
39
33
109
39
33
109
39
33
109
39
33
109
39
33
109
39
33
109
39
33
109
39
33
109
39
0
255
227
0
255
227
0
255
227
0
255
227
0
255
227
0
255
227
0
255
227
0
255
227
0
255
227
0
255
227
0
255
227
0
255
227
0
255
227
33
109
39
33
109
39
33
109
39
33
109
39
33
109
39
33
109
39
33
109
39
33
109
39
33
109
39
33
109
39
33
109
39
33
109
39
0
255
227
0
255
227
0
255
227
0
255
227
0
255
227
0
255
227
0
255
227
0
255
227
0
255
227
0
255
227
0
255
227
33
109
39
33
109
39
33
109
39
33
109
39
33
109
39
33
109
39
33
109
39
33
109
39
33
109
39
33
109
39
33
109
39
33
109
39
33
109
39
33
109
39
0
255
227
0
255
227
0
255
227
0
255
227
0
255
227
0
255
227
0
255
227
0
255
227
0
255
227
33
109
39
33
109
39
33
109
39
33
109
39
33
109
39
33
109
39
33
109
39
33
109
39
33
109
39
33
109
39
33
109
39
33
109
39
33
109
39
33
109
39
33
109
39
33
109
39
0
255
227
0
255
227
0
255
227
0
255
227
0
255
227
0
255
227
0
255
227
0
255
227
33
109
39
33
109
39
33
109
39
33
109
39
33
109
39
33
109
39
33
109
39
33
109
39
33
109
39
33
109
39
33
109
39
33
109
39
33
109
39
33
109
39
33
109
39
33
109
39
33
109
39
0
255
227
0
255
227
0
255
227
0
255
227
0
255
227
0
255
227
33
109
39
33
109
39
33
109
39
33
109
39
33
109
39
33
109
39
33
109
39
33
109
39
33
109
39
33
109
39
33
109
39
33
109
39
33
109
39
33
109
39
33
109
39
33
109
39
33
109
39
33
109
39
0
255
227
0
255
227
0
255
227
0
255
227
0
255
227
33
109
39
33
109
39
33
109
39
33
109
39
33
109
39
33
109
39
33
109
39
33
109
39
33
109
39
33
109
39
33
109
39
33
109
39
33
109
39
33
109
39
33
109
39
33
109
39
33
109
39
33
109
39
33
109
39
33
109
39
33
109
39
0
255
227
0
255
227
33
109
39
33
109
39
33
109
39
33
109
39
33
109
39
33
109
39
33
109
39
33
109
39
33
109
39
33
109
39
33
109
39
33
109
39
33
109
39
33
109
39
33
109
39
33
109
39
33
109
39
33
109
39
33
109
39
33
109
39
33
109
39
33
109
39
33
109
39
33
109
39
33
109
39
33
109
39
33
109
39
33
109
39
33
109
39
33
109
39
33
109
39
33
109
39
33
109
39
33
109
39
33
109
39
33
109
39
33
109
39
33
109
39
33
109
39
33
109
39
33
109
39
33
109
39
33
109
39
33
109
39
33
109
39
33
109
39
33
109
39
33
109
39
33
109
39
33
109
39
33
109
39
33
109
39
33
109
39
33
109
39
33
109
39
33
109
39
33
109
39
33
109
39
33
109
39
33
109
39
33
109
39
33
109
39
33
109
39
33
109
39
33
109
39
33
109
39
33
109
39
33
109
39
33
109
39
33
109
39
33
109
39
33
109
39
33
109
39
33
109
39
33
109
39
33
109
39
33
109
39
33
109
39
33
109
39
33
109
39
33
109
39
33
109
39
33
109
39
