P3
8 8
255
0
0
0
29
29
29
29
29
29
47
47
47
47
47
47
0
0
0
0
0
0
0
0
0
29
29
29
47
47
47
47
47
47
47
47
47
47
47
47
29
29
29
29
29
29
47
47
47
29
29
29
29
29
29
29
29
29
29
29
29
29
29
29
255
255
255
47
47
47
255
255
255
29
29
29
29
29
29
0
0
0
0
0
0
29
29
29
29
29
29
47
47
47
47
47
47
29
29
29
29
29
29
29
29
29
29
29
29
255
255
255
29
29
29
29
29
29
29
29
29
0
0
0
29
29
29
29
29
29
29
29
29
29
29
29
255
255
255
255
255
255
255
255
255
0
0
0
0
0
0
0
0
0
29
29
29
29
29
29
29
29
29
29
29
29
47
47
47
47
47
47
47
47
47
47
47
47
47
47
47
0
0
0
0
0
0
47
47
47
47
47
47
