P3
16 16
255
33
109
39
33
109
39
33
109
39
33
109
39
33
109
39
33
109
39
33
109
39
33
109
39
33
109
39
33
109
39
33
109
39
33
109
39
33
109
39
33
109
39
33
109
39
33
109
39
33
109
39
33
109
39
33
109
39
33
109
39
33
109
39
0
0
0
0
0
0
0
0
0
0
0
0
0
0
0
0
0
0
0
0
0
0
0
0
0
0
0
33
109
39
33
109
39
33
109
39
33
109
39
33
109
39
33
109
39
33
109
39
0
0
0
78
0
149
0
0
0
0
0
0
0
0
0
0
0
0
0
0
0
0
0
0
0
0
0
33
109
39
33
109
39
33
109
39
33
109
39
33
109
39
33
109
39
0
0
0
0
0
0
0
0
0
0
0
0
0
0
0
0
0
0
0
0
0
0
0
0
0
0
0
0
0
0
33
109
39
33
109
39
33
109
39
33
109
39
33
109
39
0
0
0
0
0
0
0
0
0
0
0
0
0
0
0
0
0
0
0
0
0
0
0
0
0
0
0
78
0
149
0
0
0
0
0
0
33
109
39
33
109
39
33
109
39
0
0
0
0
0
0
0
0
0
0
0
0
0
0
0
0
0
0
78
0
149
0
0
0
0
0
0
0
0
0
0
0
0
0
0
0
0
0
0
33
109
39
33
109
39
33
109
39
0
0
0
0
0
0
0
0
0
0
0
0
0
0
0
0
0
0
0
0
0
0
0
0
0
0
0
0
0
0
0
0
0
0
0
0
0
0
0
33
109
39
33
109
39
33
109
39
0
0
0
0
0
0
0
0
0
0
0
0
0
0
0
0
0
0
0
0
0
0
0
0
0
0
0
0
0
0
0
0
0
0
0
0
0
0
0
33
109
39
33
109
39
0
0
0
0
0
0
0
0
0
0
0
0
0
0
0
0
0
0
0
0
0
0
0
0
0
0
0
0
0
0
0
0
0
0
0
0
0
0
0
0
0
0
33
109
39
33
109
39
0
0
0
0
0
0
0
0
0
0
0
0
0
0
0
0
0
0
0
0
0
0
0
0
0
0
0
0
0
0
78
0
149
0
0
0
0
0
0
0
0
0
33
109
39
33
109
39
0
0
0
0
0
0
78
0
149
0
0
0
0
0
0
0
0
0
0
0
0
0
0
0
0
0
0
0
0
0
0
0
0
0
0
0
0
0
0
0
0
0
33
109
39
33
109
39
0
0
0
0
0
0
0
0
0
0
0
0
0
0
0
0
0
0
0
0
0
0
0
0
0
0
0
0
0
0
0
0
0
0
0
0
0
0
0
0
0
0
33
109
39
33
109
39
0
0
0
0
0
0
0
0
0
0
0
0
0
0
0
78
0
149
0
0
0
0
0
0
0
0
0
0
0
0
0
0
0
0
0
0
0
0
0
0
0
0
33
109
39
33
109
39
0
0
0
0
0
0
0
0
0
0
0
0
0
0
0
0
0
0
0
0
0
0
0
0
0
0
0
0
0
0
0
0
0
0
0
0
0
0
0
33
109
39
33
109
39
33
109
39
33
109
39
0
0
0
0
0
0
0
0
0
0
0
0
0
0
0
0
0
0
0
0
0
0
0
0
33
109
39
33
109
39
33
109
39
33
109
39
33
109
39
33
109
39
33
109
39
33
109
39
33
109
39
33
109
39
33
109
39
33
109
39
33
109
39
33
109
39
33
109
39
33
109
39
33
109
39
33
109
39
33
109
39
33
109
39
33
109
39
33
109
39
